<?xml version="1.0" standalone="no"?>
<!DOCTYPE svg PUBLIC "-//W3C//DTD SVG 20010904//EN"
 "http://www.w3.org/TR/2001/REC-SVG-20010904/DTD/svg10.dtd">
<svg version="1.0" xmlns="http://www.w3.org/2000/svg"
 width="900.000000pt" height="900.000000pt" viewBox="0 0 900.000000 900.000000"
 preserveAspectRatio="xMidYMid meet">
<metadata>
Created by potrace 1.11, written by Peter Selinger 2001-2013
</metadata>
<g transform="translate(0.000000,900.000000) scale(0.100000,-0.100000)"
fill="#000000" stroke="none">
<path d="M4300 8593 c-68 -4 -289 -23 -335 -29 -94 -13 -319 -57 -435 -85
-304 -74 -721 -240 -980 -389 -8 -5 -44 -25 -80 -46 -186 -107 -436 -288 -594
-430 -90 -80 -345 -336 -423 -424 -63 -71 -226 -290 -297 -399 -335 -514 -552
-1105 -621 -1691 -4 -30 -9 -66 -11 -80 -25 -155 -24 -648 1 -855 49 -398 125
-698 262 -1045 393 -988 1168 -1780 2150 -2199 355 -152 802 -268 1138 -296
39 -3 86 -8 105 -11 60 -10 469 -12 590 -3 101 7 206 19 320 35 647 92 1288
363 1830 772 148 112 179 140 373 331 256 252 369 388 542 651 287 437 470
873 575 1369 25 116 37 190 65 396 20 141 26 517 13 725 -24 359 -119 784
-255 1140 -155 405 -402 825 -671 1140 -158 186 -460 475 -627 601 -365 277
-753 483 -1162 619 -282 93 -484 138 -838 185 -111 14 -493 25 -635 18z
m-1332 -1454 c92 -56 181 -109 197 -119 17 -9 82 -48 145 -87 63 -39 486 -295
940 -570 454 -275 1037 -628 1295 -785 499 -303 928 -562 973 -589 15 -9 119
-72 232 -141 113 -69 249 -151 302 -184 54 -32 97 -61 97 -64 0 -3 -43 -32
-97 -64 -53 -33 -135 -83 -182 -111 -163 -100 -705 -428 -737 -446 -17 -10
-51 -30 -75 -45 -37 -24 -510 -311 -723 -439 -256 -155 -427 -258 -1055 -640
-614 -373 -784 -476 -858 -520 -9 -5 -123 -74 -252 -151 -129 -78 -253 -152
-275 -165 -22 -12 -60 -34 -84 -48 l-45 -25 74 140 c116 220 441 828 707 1324
290 538 308 572 385 713 32 60 82 152 110 205 28 53 71 133 96 177 24 44 44
87 44 95 0 8 -161 314 -359 680 -450 833 -417 773 -628 1165 -178 332 -235
438 -285 530 -70 130 -140 265 -140 271 0 11 28 -4 198 -107z"/>
</g>
</svg>
